<svg xmlns="http://www.w3.org/2000/svg" version="1.1" xmlns:xlink="http://www.w3.org/1999/xlink" xmlns:svgjs="http://svgjs.dev/svgjs" width="2000" height="1999" viewBox="0 0 2000 1999"><g transform="matrix(1,0,0,1,-0.431486880466764,-0.4312711370263287)"><svg viewBox="0 0 343 343" data-background-color="#ffffff" preserveAspectRatio="xMidYMid meet" height="1999" width="2000" xmlns="http://www.w3.org/2000/svg" xmlns:xlink="http://www.w3.org/1999/xlink"><g id="tight-bounds" transform="matrix(1,0,0,1,0.0740000000000407,0.07400000000001228)"><svg viewBox="0 0 342.85155851775386 342.85155851775386" height="342.85155851775386" width="342.85155851775386"><g><svg></svg></g><g><svg viewBox="0 0 342.85155851775386 342.85155851775386" height="342.85155851775386" width="342.85155851775386"><g><path d="M0 171.426c0-94.676 76.75-171.426 171.426-171.426 94.676 0 171.426 76.75 171.426 171.426 0 94.676-76.75 171.426-171.426 171.426-94.676 0-171.426-76.75-171.426-171.426zM171.426 339.545c92.849 0 168.119-75.269 168.119-168.119 0-92.849-75.269-168.119-168.119-168.119-92.849 0-168.119 75.269-168.119 168.119 0 92.849 75.269 168.119 168.119 168.119z" data-fill-palette-color="tertiary" fill="#2c3ad1" stroke="transparent"></path><ellipse rx="164.56874808852186" ry="164.56874808852186" cx="171.42577925887693" cy="171.42577925887693" fill="#2c3ad1" stroke="transparent" stroke-width="0" fill-opacity="1" data-fill-palette-color="tertiary"></ellipse></g><g transform="matrix(1,0,0,1,64.84655864529837,123.4228903409404)"><svg viewBox="0 0 213.1584412271571 96.00577783587305" height="96.00577783587305" width="213.1584412271571"><g><svg viewBox="0 0 213.1584412271571 96.00577783587305" height="96.00577783587305" width="213.1584412271571"><g><svg viewBox="0 0 213.1584412271571 96.00577783587305" height="96.00577783587305" width="213.1584412271571"><g transform="matrix(1,0,0,1,0,59.33542226335604)"><svg viewBox="0 0 213.1584412271571 36.67035557251701" height="36.67035557251701" width="213.1584412271571"><g id="textblocktransform"><svg viewBox="0 0 213.1584412271571 36.67035557251701" height="36.67035557251701" width="213.1584412271571" id="textblock"><g><svg viewBox="0 0 213.1584412271571 36.67035557251701" height="36.67035557251701" width="213.1584412271571"><g transform="matrix(1,0,0,1,0,0)"><svg width="213.1584412271571" viewBox="1.5 -37.6 222.03 38.2" height="36.67035557251701" data-palette-color="#ffffff"><path d="M13.2 0.6L13.2 0.6Q9.55 0.6 6.55-0.38 3.55-1.35 1.5-2.95L1.5-2.95 3.9-6.95Q5.7-5.45 7.95-4.5 10.2-3.55 13.2-3.55L13.2-3.55Q16.8-3.55 18.9-5.05 21-6.55 21-9.1L21-9.1Q21-10.55 20.4-11.68 19.8-12.8 18.07-13.88 16.35-14.95 13-16.2L13-16.2Q9.4-17.6 7.25-19.03 5.1-20.45 4.17-22.28 3.25-24.1 3.25-26.6L3.25-26.6Q3.25-29.1 4.63-31.13 6-33.15 8.68-34.38 11.35-35.6 15.15-35.6L15.15-35.6Q18.25-35.6 20.73-34.98 23.2-34.35 25.55-33.2L25.55-33.2 23.8-29.15Q22.1-30.15 19.83-30.83 17.55-31.5 15.05-31.5L15.05-31.5Q11.75-31.5 9.85-30.2 7.95-28.9 7.95-26.85L7.95-26.85Q7.95-25.55 8.5-24.55 9.05-23.55 10.68-22.6 12.3-21.65 15.55-20.45L15.55-20.45Q19.45-19 21.73-17.4 24-15.8 24.95-13.93 25.9-12.05 25.9-9.65L25.9-9.65Q25.9-6.4 24.28-4.1 22.65-1.8 19.78-0.6 16.9 0.6 13.2 0.6ZM42.35 0.6L42.35 0.6Q39.1 0.6 36.45-1.05 33.8-2.7 32.22-5.73 30.65-8.75 30.65-12.85L30.65-12.85Q30.65-16.75 32.22-19.85 33.8-22.95 36.57-24.78 39.35-26.6 42.95-26.6L42.95-26.6Q45.2-26.6 47.02-25.83 48.85-25.05 50.2-23.9L50.2-23.9 50.2-26 54.3-26 54.3-6.3Q54.3-4.4 55.22-3.83 56.15-3.25 57.25-3.25L57.25-3.25 56.3 0.25Q51.5 0.25 50.5-3.65L50.5-3.65Q49.35-2.05 47.37-0.73 45.4 0.6 42.35 0.6ZM43.35-3.4L43.35-3.4Q45.25-3.4 46.95-4.33 48.65-5.25 49.8-6.65L49.8-6.65 49.8-20.6Q48.45-21.55 46.82-22.13 45.2-22.7 43.4-22.7L43.4-22.7Q41-22.7 39.17-21.48 37.35-20.25 36.3-18.07 35.25-15.9 35.25-13L35.25-13Q35.25-10.2 36.3-8.03 37.35-5.85 39.2-4.63 41.05-3.4 43.35-3.4ZM68.25 0L63.75 0 63.75-21.15 59.75-21.15 59.75-25.05 63.75-25.05 63.75-28.1Q63.75-32.5 66.2-35.05 68.65-37.6 72.59-37.6L72.59-37.6Q74.65-37.6 76.2-37.13 77.75-36.65 79.15-35.95L79.15-35.95 77.8-32.15Q76.75-32.7 75.55-33.15 74.34-33.6 72.9-33.6L72.9-33.6Q70.8-33.6 69.52-32.27 68.25-30.95 68.25-28.4L68.25-28.4 68.25-25.05 75.95-25.05 75.95-21.15 68.25-21.15 68.25 0ZM90.29 0.6L90.29 0.6Q84.69 0.6 81.42-2.98 78.14-6.55 78.14-13L78.14-13Q78.14-16.9 79.62-19.98 81.09-23.05 83.74-24.83 86.39-26.6 89.89-26.6L89.89-26.6Q93.64-26.6 96.12-24.98 98.59-23.35 99.84-20.6 101.09-17.85 101.09-14.55L101.09-14.55Q101.09-12.8 100.94-11.15L100.94-11.15 82.74-11.15Q83.19-7.5 85.29-5.45 87.39-3.4 90.84-3.4L90.84-3.4Q93.09-3.4 94.89-3.88 96.69-4.35 98.34-5.1L98.34-5.1 99.39-1.25Q97.59-0.45 95.34 0.08 93.09 0.6 90.29 0.6ZM82.69-14.8L82.69-14.8 96.94-14.8Q96.94-18.6 95.04-20.65 93.14-22.7 89.79-22.7L89.79-22.7Q86.89-22.7 84.99-20.68 83.09-18.65 82.69-14.8ZM114.84 0L110.09 0 110.09-30.8 99.34-30.8 99.34-35 125.59-35 125.59-30.8 114.84-30.8 114.84 0ZM134.59 0L130.09 0 130.09-26 134.44-26 134.44-20.35Q135.09-22 136.19-23.43 137.29-24.85 138.94-25.73 140.59-26.6 142.79-26.6L142.79-26.6Q143.54-26.6 144.29-26.53 145.04-26.45 145.54-26.3L145.54-26.3 144.19-21.65Q143.24-22.05 141.94-22.05L141.94-22.05Q140.09-22.05 138.41-21 136.74-19.95 135.66-17.75 134.59-15.55 134.59-12.15L134.59-12.15 134.59 0ZM158.49 0.6L158.49 0.6Q155.24 0.6 152.59-1.05 149.94-2.7 148.36-5.73 146.79-8.75 146.79-12.85L146.79-12.85Q146.79-16.75 148.36-19.85 149.94-22.95 152.71-24.78 155.49-26.6 159.09-26.6L159.09-26.6Q161.34-26.6 163.16-25.83 164.99-25.05 166.34-23.9L166.34-23.9 166.34-26 170.44-26 170.44-6.3Q170.44-4.4 171.36-3.83 172.29-3.25 173.39-3.25L173.39-3.25 172.44 0.25Q167.64 0.25 166.64-3.65L166.64-3.65Q165.49-2.05 163.51-0.73 161.54 0.6 158.49 0.6ZM159.49-3.4L159.49-3.4Q161.39-3.4 163.09-4.33 164.79-5.25 165.94-6.65L165.94-6.65 165.94-20.6Q164.59-21.55 162.96-22.13 161.34-22.7 159.54-22.7L159.54-22.7Q157.14-22.7 155.31-21.48 153.49-20.25 152.44-18.07 151.39-15.9 151.39-13L151.39-13Q151.39-10.2 152.44-8.03 153.49-5.85 155.34-4.63 157.19-3.4 159.49-3.4ZM189.38 0.6L189.38 0.6Q185.68 0.6 182.91-1.13 180.13-2.85 178.63-5.93 177.13-9 177.13-13L177.13-13Q177.13-16.75 178.66-19.85 180.18-22.95 183.03-24.78 185.88-26.6 189.73-26.6L189.73-26.6Q191.93-26.6 193.61-26.2 195.28-25.8 196.83-25.05L196.83-25.05 195.48-21.25Q194.08-21.95 192.81-22.28 191.53-22.6 189.98-22.6L189.98-22.6Q186.48-22.6 184.11-20.08 181.73-17.55 181.73-13.1L181.73-13.1Q181.73-10.4 182.73-8.2 183.73-6 185.51-4.7 187.28-3.4 189.68-3.4L189.68-3.4Q191.58-3.4 192.93-3.83 194.28-4.25 195.83-5.05L195.83-5.05 197.23-1.25Q195.68-0.4 193.76 0.1 191.83 0.6 189.38 0.6ZM223.53-2.5L220.43 0.5 206.98-13.35 206.98 0 202.48 0 202.48-37 206.98-37 206.98-15.85 218.73-26.5 221.33-23.65 211.28-14.75 223.53-2.5Z" opacity="1" transform="matrix(1,0,0,1,0,0)" fill="#ffffff" class="wordmark-text-0" data-fill-palette-color="quaternary" id="text-0"></path></svg></g></svg></g></svg></g></svg></g><g transform="matrix(1,0,0,1,79.23935315352249,0)"><svg viewBox="0 0 54.67973492011214 50.67843140121851" height="50.67843140121851" width="54.67973492011214"><g><svg xmlns="http://www.w3.org/2000/svg" xml:space="preserve" overflow="visible" viewBox="0 0 96 88.975" x="0" y="0" height="50.67843140121851" width="54.67973492011214" class="icon-icon-0" data-fill-palette-color="quaternary" id="icon-0"><path d="M0 77.854l27.805 11.121V11.122L0 0z m8.22-50.916l3.835 1.363 1.082 2.234c0.315 0.676 0.609 1.321 0.902 1.966l0.044 0.016c0.293-0.504 0.563-0.949 0.857-1.386l0.97-1.46 3.721 1.323L16 34.957l3.676 7.08-3.878-1.379-1.106-2.377c-0.316-0.653-0.586-1.313-0.857-1.973l-0.067-0.025c-0.27 0.49-0.563 0.928-0.835 1.373l-1.036 1.616-3.767-1.337 3.743-4.286zM68.195 0v77.854L96 88.975V11.122zM31.317 88.975l33.366-11.121V0L31.317 11.122z" fill="#ffffff" data-fill-palette-color="quaternary"></path></svg></g></svg></g><g></g></svg></g></svg></g></svg></g></svg></g><defs></defs></svg><rect width="342.85155851775386" height="342.85155851775386" fill="none" stroke="none" visibility="hidden"></rect></g></svg></g></svg>